<svg width="450" height="60" viewBox="0 0 450 60" fill="none" xmlns="http://www.w3.org/2000/svg">
<g opacity="0.2">
<path d="M449.42 58.6L448.607 60L445.125 54L448.607 48L449.42 49.4L446.765 54L449.42 58.6ZM445.938 58.6L445.125 60L441.643 54L445.125 48L445.938 49.4L443.283 54L445.938 58.6ZM442.456 58.6L441.643 60L438.161 54L441.643 48L442.456 49.4L439.8 54L442.456 58.6Z" fill="#A66F00"/>
<path d="M365.85 58.6L365.037 60L361.555 54L365.037 48L365.85 49.4L363.195 54L365.85 58.6ZM362.368 58.6L361.555 60L358.073 54L361.555 48L362.368 49.4L359.713 54L362.368 58.6ZM358.886 58.6L358.073 60L354.591 54L358.073 48L358.886 49.4L356.231 54L358.886 58.6Z" fill="#A66F00"/>
<path d="M407.635 58.6L406.822 60L403.34 54L406.822 48L407.635 49.4L404.98 54L407.635 58.6ZM404.153 58.6L403.34 60L399.858 54L403.34 48L404.153 49.4L401.498 54L404.153 58.6ZM400.671 58.6L399.858 60L396.376 54L399.858 48L400.671 49.4L398.016 54L400.671 58.6Z" fill="#A66F00"/>
<path d="M324.065 58.6L323.253 60L319.77 54L323.253 48L324.065 49.4L321.41 54L324.065 58.6ZM320.583 58.6L319.77 60L316.288 54L319.77 48L320.583 49.4L317.928 54L320.583 58.6ZM317.101 58.6L316.288 60L312.806 54L316.288 48L317.101 49.4L314.446 54L317.101 58.6Z" fill="#A66F00"/>
<path d="M271.834 58.6L271.021 60L267.539 54L271.021 48L271.834 49.4L269.179 54L271.834 58.6ZM268.352 58.6L267.539 60L264.057 54L267.539 48L268.352 49.4L265.697 54L268.352 58.6ZM264.87 58.6L264.057 60L260.575 54L264.057 48L264.87 49.4L262.215 54L264.87 58.6Z" fill="#A66F00"/>
<path d="M438.973 58.6L438.161 60L434.679 54L438.161 48L438.973 49.4L436.318 54L438.973 58.6ZM435.491 58.6L434.679 60L431.197 54L434.679 48L435.491 49.4L432.836 54L435.491 58.6ZM432.009 58.6L431.197 60L427.715 54L431.197 48L432.009 49.4L429.354 54L432.009 58.6Z" fill="#A66F00"/>
<path d="M355.404 58.6L354.591 60L351.109 54L354.591 48L355.404 49.4L352.749 54L355.404 58.6ZM351.922 58.6L351.109 60L347.627 54L351.109 48L351.922 49.4L349.267 54L351.922 58.6ZM348.44 58.6L347.627 60L344.145 54L347.627 48L348.44 49.4L345.784 54L348.44 58.6Z" fill="#A66F00"/>
<path d="M397.189 58.6L396.376 60L392.894 54L396.376 48L397.189 49.4L394.533 54L397.189 58.6ZM393.706 58.6L392.894 60L389.412 54L392.894 48L393.706 49.4L391.051 54L393.706 58.6ZM390.224 58.6L389.412 60L385.93 54L389.412 48L390.224 49.4L387.569 54L390.224 58.6Z" fill="#A66F00"/>
<path d="M313.619 58.6L312.806 60L309.324 54L312.806 48L313.619 49.4L310.964 54L313.619 58.6ZM310.137 58.6L309.324 60L305.842 54L309.324 48L310.137 49.4L307.482 54L310.137 58.6ZM306.655 58.6L305.842 60L302.36 54L305.842 48L306.655 49.4L304 54L306.655 58.6Z" fill="#A66F00"/>
<path d="M261.388 58.6L260.575 60L257.093 54L260.575 48L261.388 49.4L258.733 54L261.388 58.6ZM257.906 58.6L257.093 60L253.611 54L257.093 48L257.906 49.4L255.251 54L257.906 58.6ZM254.424 58.6L253.611 60L250.129 54L253.611 48L254.424 49.4L251.768 54L254.424 58.6Z" fill="#A66F00"/>
<path d="M428.527 58.6L427.715 60L424.233 54L427.715 48L428.527 49.4L425.872 54L428.527 58.6ZM425.045 58.6L424.233 60L420.751 54L424.233 48L425.045 49.4L422.39 54L425.045 58.6ZM421.563 58.6L420.751 60L417.269 54L420.751 48L421.563 49.4L418.908 54L421.563 58.6Z" fill="#A66F00"/>
<path d="M344.957 58.6L344.145 60L340.663 54L344.145 48L344.957 49.4L342.302 54L344.957 58.6ZM341.475 58.6L340.663 60L337.181 54L340.663 48L341.475 49.4L338.82 54L341.475 58.6ZM337.993 58.6L337.181 60L333.699 54L337.181 48L337.993 49.4L335.338 54L337.993 58.6Z" fill="#A66F00"/>
<path d="M386.742 58.6L385.93 60L382.448 54L385.93 48L386.742 49.4L384.087 54L386.742 58.6ZM383.26 58.6L382.448 60L378.966 54L382.448 48L383.26 49.4L380.605 54L383.26 58.6ZM379.778 58.6L378.966 60L375.484 54L378.966 48L379.778 49.4L377.123 54L379.778 58.6Z" fill="#A66F00"/>
<path d="M303.173 58.6L302.36 60L298.878 54L302.36 48L303.173 49.4L300.517 54L303.173 58.6ZM299.69 58.6L298.878 60L295.396 54L298.878 48L299.69 49.4L297.035 54L299.69 58.6ZM296.208 58.6L295.396 60L291.914 54L295.396 48L296.208 49.4L293.553 54L296.208 58.6Z" fill="#A66F00"/>
<path d="M250.941 58.6L250.129 60L246.647 54L250.129 48L250.941 49.4L248.286 54L250.941 58.6ZM247.459 58.6L246.647 60L243.165 54L246.647 48L247.459 49.4L244.804 54L247.459 58.6ZM243.977 58.6L243.165 60L239.683 54L243.165 48L243.977 49.4L241.322 54L243.977 58.6Z" fill="#A66F00"/>
<path d="M418.081 58.6L417.269 60L413.786 54L417.269 48L418.081 49.4L415.426 54L418.081 58.6ZM414.599 58.6L413.786 60L410.304 54L413.786 48L414.599 49.4L411.944 54L414.599 58.6ZM411.117 58.6L410.304 60L406.822 54L410.304 48L411.117 49.4L408.462 54L411.117 58.6Z" fill="#A66F00"/>
<path d="M334.511 58.6L333.699 60L330.217 54L333.699 48L334.511 49.4L331.856 54L334.511 58.6ZM331.029 58.6L330.217 60L326.735 54L330.217 48L331.029 49.4L328.374 54L331.029 58.6ZM327.547 58.6L326.735 60L323.253 54L326.735 48L327.547 49.4L324.892 54L327.547 58.6Z" fill="#A66F00"/>
<path d="M282.28 58.6L281.468 60L277.986 54L281.468 48L282.28 49.4L279.625 54L282.28 58.6ZM278.798 58.6L277.986 60L274.503 54L277.986 48L278.798 49.4L276.143 54L278.798 58.6ZM275.316 58.6L274.503 60L271.021 54L274.503 48L275.316 49.4L272.661 54L275.316 58.6Z" fill="#A66F00"/>
<path d="M376.296 58.6L375.484 60L372.002 54L375.484 48L376.296 49.4L373.641 54L376.296 58.6ZM372.814 58.6L372.002 60L368.519 54L372.002 48L372.814 49.4L370.159 54L372.814 58.6ZM369.332 58.6L368.519 60L365.037 54L368.519 48L369.332 49.4L366.677 54L369.332 58.6Z" fill="#A66F00"/>
<path d="M292.726 58.6L291.914 60L288.432 54L291.914 48L292.726 49.4L290.071 54L292.726 58.6ZM289.244 58.6L288.432 60L284.95 54L288.432 48L289.244 49.4L286.589 54L289.244 58.6ZM285.762 58.6L284.95 60L281.468 54L284.95 48L285.762 49.4L283.107 54L285.762 58.6Z" fill="#A66F00"/>
<path d="M240.495 58.6L239.683 60L236.201 54L239.683 48L240.495 49.4L237.84 54L240.495 58.6ZM237.013 58.6L236.201 60L232.719 54L236.201 48L237.013 49.4L234.358 54L237.013 58.6ZM233.531 58.6L232.719 60L229.237 54L232.719 48L233.531 49.4L230.876 54L233.531 58.6Z" fill="#A66F00"/>
<path d="M230.049 58.6L229.237 60L225.754 54L229.237 48L230.049 49.4L227.394 54L230.049 58.6ZM226.567 58.6L225.754 60L222.272 54L225.754 48L226.567 49.4L223.912 54L226.567 58.6ZM223.085 58.6L222.272 60L218.79 54L222.272 48L223.085 49.4L220.43 54L223.085 58.6Z" fill="#A66F00"/>
<path d="M219.603 58.6L218.79 60L215.308 54L218.79 48L219.603 49.4L216.948 54L219.603 58.6ZM216.121 58.6L215.308 60L211.826 54L215.308 48L216.121 49.4L213.466 54L216.121 58.6ZM212.639 58.6L211.826 60L208.344 54L211.826 48L212.639 49.4L209.984 54L212.639 58.6Z" fill="#A66F00"/>
<path d="M209.157 58.6L208.344 60L204.862 54L208.344 48L209.157 49.4L206.501 54L209.157 58.6ZM205.674 58.6L204.862 60L201.38 54L204.862 48L205.674 49.4L203.019 54L205.674 58.6ZM202.192 58.6L201.38 60L197.898 54L201.38 48L202.192 49.4L199.537 54L202.192 58.6Z" fill="#A66F00"/>
<path d="M449.42 42.6L448.607 44L445.125 38L448.607 32L449.42 33.4L446.765 38L449.42 42.6ZM445.938 42.6L445.125 44L441.643 38L445.125 32L445.938 33.4L443.283 38L445.938 42.6ZM442.456 42.6L441.643 44L438.161 38L441.643 32L442.456 33.4L439.8 38L442.456 42.6Z" fill="#A66F00"/>
<path d="M365.85 42.6L365.037 44L361.555 38L365.037 32L365.85 33.4L363.195 38L365.85 42.6ZM362.368 42.6L361.555 44L358.073 38L361.555 32L362.368 33.4L359.713 38L362.368 42.6ZM358.886 42.6L358.073 44L354.591 38L358.073 32L358.886 33.4L356.231 38L358.886 42.6Z" fill="#A66F00"/>
<path d="M407.635 42.6L406.822 44L403.34 38L406.822 32L407.635 33.4L404.98 38L407.635 42.6ZM404.153 42.6L403.34 44L399.858 38L403.34 32L404.153 33.4L401.498 38L404.153 42.6ZM400.671 42.6L399.858 44L396.376 38L399.858 32L400.671 33.4L398.016 38L400.671 42.6Z" fill="#A66F00"/>
<path d="M324.065 42.6L323.253 44L319.77 38L323.253 32L324.065 33.4L321.41 38L324.065 42.6ZM320.583 42.6L319.77 44L316.288 38L319.77 32L320.583 33.4L317.928 38L320.583 42.6ZM317.101 42.6L316.288 44L312.806 38L316.288 32L317.101 33.4L314.446 38L317.101 42.6Z" fill="#A66F00"/>
<path d="M271.834 42.6L271.021 44L267.539 38L271.021 32L271.834 33.4L269.179 38L271.834 42.6ZM268.352 42.6L267.539 44L264.057 38L267.539 32L268.352 33.4L265.697 38L268.352 42.6ZM264.87 42.6L264.057 44L260.575 38L264.057 32L264.87 33.4L262.215 38L264.87 42.6Z" fill="#A66F00"/>
<path d="M438.973 42.6L438.161 44L434.679 38L438.161 32L438.973 33.4L436.318 38L438.973 42.6ZM435.491 42.6L434.679 44L431.197 38L434.679 32L435.491 33.4L432.836 38L435.491 42.6ZM432.009 42.6L431.197 44L427.715 38L431.197 32L432.009 33.4L429.354 38L432.009 42.6Z" fill="#A66F00"/>
<path d="M355.404 42.6L354.591 44L351.109 38L354.591 32L355.404 33.4L352.749 38L355.404 42.6ZM351.922 42.6L351.109 44L347.627 38L351.109 32L351.922 33.4L349.267 38L351.922 42.6ZM348.44 42.6L347.627 44L344.145 38L347.627 32L348.44 33.4L345.784 38L348.44 42.6Z" fill="#A66F00"/>
<path d="M397.189 42.6L396.376 44L392.894 38L396.376 32L397.189 33.4L394.533 38L397.189 42.6ZM393.706 42.6L392.894 44L389.412 38L392.894 32L393.706 33.4L391.051 38L393.706 42.6ZM390.224 42.6L389.412 44L385.93 38L389.412 32L390.224 33.4L387.569 38L390.224 42.6Z" fill="#A66F00"/>
<path d="M313.619 42.6L312.806 44L309.324 38L312.806 32L313.619 33.4L310.964 38L313.619 42.6ZM310.137 42.6L309.324 44L305.842 38L309.324 32L310.137 33.4L307.482 38L310.137 42.6ZM306.655 42.6L305.842 44L302.36 38L305.842 32L306.655 33.4L304 38L306.655 42.6Z" fill="#A66F00"/>
<path d="M261.388 42.6L260.575 44L257.093 38L260.575 32L261.388 33.4L258.733 38L261.388 42.6ZM257.906 42.6L257.093 44L253.611 38L257.093 32L257.906 33.4L255.251 38L257.906 42.6ZM254.424 42.6L253.611 44L250.129 38L253.611 32L254.424 33.4L251.768 38L254.424 42.6Z" fill="#A66F00"/>
<path d="M428.527 42.6L427.715 44L424.233 38L427.715 32L428.527 33.4L425.872 38L428.527 42.6ZM425.045 42.6L424.233 44L420.751 38L424.233 32L425.045 33.4L422.39 38L425.045 42.6ZM421.563 42.6L420.751 44L417.269 38L420.751 32L421.563 33.4L418.908 38L421.563 42.6Z" fill="#A66F00"/>
<path d="M344.957 42.6L344.145 44L340.663 38L344.145 32L344.957 33.4L342.302 38L344.957 42.6ZM341.475 42.6L340.663 44L337.181 38L340.663 32L341.475 33.4L338.82 38L341.475 42.6ZM337.993 42.6L337.181 44L333.699 38L337.181 32L337.993 33.4L335.338 38L337.993 42.6Z" fill="#A66F00"/>
<path d="M386.742 42.6L385.93 44L382.448 38L385.93 32L386.742 33.4L384.087 38L386.742 42.6ZM383.26 42.6L382.448 44L378.966 38L382.448 32L383.26 33.4L380.605 38L383.26 42.6ZM379.778 42.6L378.966 44L375.484 38L378.966 32L379.778 33.4L377.123 38L379.778 42.6Z" fill="#A66F00"/>
<path d="M303.173 42.6L302.36 44L298.878 38L302.36 32L303.173 33.4L300.517 38L303.173 42.6ZM299.69 42.6L298.878 44L295.396 38L298.878 32L299.69 33.4L297.035 38L299.69 42.6ZM296.208 42.6L295.396 44L291.914 38L295.396 32L296.208 33.4L293.553 38L296.208 42.6Z" fill="#A66F00"/>
<path d="M250.941 42.6L250.129 44L246.647 38L250.129 32L250.941 33.4L248.286 38L250.941 42.6ZM247.459 42.6L246.647 44L243.165 38L246.647 32L247.459 33.4L244.804 38L247.459 42.6ZM243.977 42.6L243.165 44L239.683 38L243.165 32L243.977 33.4L241.322 38L243.977 42.6Z" fill="#A66F00"/>
<path d="M418.081 42.6L417.269 44L413.786 38L417.269 32L418.081 33.4L415.426 38L418.081 42.6ZM414.599 42.6L413.786 44L410.304 38L413.786 32L414.599 33.4L411.944 38L414.599 42.6ZM411.117 42.6L410.304 44L406.822 38L410.304 32L411.117 33.4L408.462 38L411.117 42.6Z" fill="#A66F00"/>
<path d="M334.511 42.6L333.699 44L330.217 38L333.699 32L334.511 33.4L331.856 38L334.511 42.6ZM331.029 42.6L330.217 44L326.735 38L330.217 32L331.029 33.4L328.374 38L331.029 42.6ZM327.547 42.6L326.735 44L323.253 38L326.735 32L327.547 33.4L324.892 38L327.547 42.6Z" fill="#A66F00"/>
<path d="M282.28 42.6L281.468 44L277.986 38L281.468 32L282.28 33.4L279.625 38L282.28 42.6ZM278.798 42.6L277.986 44L274.503 38L277.986 32L278.798 33.4L276.143 38L278.798 42.6ZM275.316 42.6L274.503 44L271.021 38L274.503 32L275.316 33.4L272.661 38L275.316 42.6Z" fill="#A66F00"/>
<path d="M376.296 42.6L375.484 44L372.002 38L375.484 32L376.296 33.4L373.641 38L376.296 42.6ZM372.814 42.6L372.002 44L368.519 38L372.002 32L372.814 33.4L370.159 38L372.814 42.6ZM369.332 42.6L368.519 44L365.037 38L368.519 32L369.332 33.4L366.677 38L369.332 42.6Z" fill="#A66F00"/>
<path d="M292.726 42.6L291.914 44L288.432 38L291.914 32L292.726 33.4L290.071 38L292.726 42.6ZM289.244 42.6L288.432 44L284.95 38L288.432 32L289.244 33.4L286.589 38L289.244 42.6ZM285.762 42.6L284.95 44L281.468 38L284.95 32L285.762 33.4L283.107 38L285.762 42.6Z" fill="#A66F00"/>
<path d="M240.495 42.6L239.683 44L236.201 38L239.683 32L240.495 33.4L237.84 38L240.495 42.6ZM237.013 42.6L236.201 44L232.719 38L236.201 32L237.013 33.4L234.358 38L237.013 42.6ZM233.531 42.6L232.719 44L229.237 38L232.719 32L233.531 33.4L230.876 38L233.531 42.6Z" fill="#A66F00"/>
<path d="M230.049 42.6L229.237 44L225.754 38L229.237 32L230.049 33.4L227.394 38L230.049 42.6ZM226.567 42.6L225.754 44L222.272 38L225.754 32L226.567 33.4L223.912 38L226.567 42.6ZM223.085 42.6L222.272 44L218.79 38L222.272 32L223.085 33.4L220.43 38L223.085 42.6Z" fill="#A66F00"/>
<path d="M219.603 42.6L218.79 44L215.308 38L218.79 32L219.603 33.4L216.948 38L219.603 42.6ZM216.121 42.6L215.308 44L211.826 38L215.308 32L216.121 33.4L213.466 38L216.121 42.6ZM212.639 42.6L211.826 44L208.344 38L211.826 32L212.639 33.4L209.984 38L212.639 42.6Z" fill="#A66F00"/>
<path d="M209.157 42.6L208.344 44L204.862 38L208.344 32L209.157 33.4L206.501 38L209.157 42.6ZM205.674 42.6L204.862 44L201.38 38L204.862 32L205.674 33.4L203.019 38L205.674 42.6ZM202.192 42.6L201.38 44L197.898 38L201.38 32L202.192 33.4L199.537 38L202.192 42.6Z" fill="#A66F00"/>
<path d="M198.71 42.6L197.898 44L194.416 38L197.898 32L198.71 33.4L196.055 38L198.71 42.6ZM195.228 42.6L194.416 44L190.934 38L194.416 32L195.228 33.4L192.573 38L195.228 42.6ZM191.746 42.6L190.934 44L187.452 38L190.934 32L191.746 33.4L189.091 38L191.746 42.6Z" fill="#A66F00"/>
<path d="M146.479 42.6L145.667 44L142.185 38L145.667 32L146.479 33.4L143.824 38L146.479 42.6ZM142.997 42.6L142.185 44L138.703 38L142.185 32L142.997 33.4L140.342 38L142.997 42.6ZM139.515 42.6L138.703 44L135.221 38L138.703 32L139.515 33.4L136.86 38L139.515 42.6Z" fill="#A66F00"/>
<path d="M188.264 42.6L187.452 44L183.97 38L187.452 32L188.264 33.4L185.609 38L188.264 42.6ZM184.782 42.6L183.97 44L180.487 38L183.97 32L184.782 33.4L182.127 38L184.782 42.6ZM181.3 42.6L180.487 44L177.005 38L180.487 32L181.3 33.4L178.645 38L181.3 42.6Z" fill="#A66F00"/>
<path d="M177.818 42.6L177.005 44L173.523 38L177.005 32L177.818 33.4L175.163 38L177.818 42.6ZM174.336 42.6L173.523 44L170.041 38L173.523 32L174.336 33.4L171.681 38L174.336 42.6ZM170.854 42.6L170.041 44L166.559 38L170.041 32L170.854 33.4L168.199 38L170.854 42.6Z" fill="#A66F00"/>
<path d="M156.925 42.6L156.113 44L152.631 38L156.113 32L156.925 33.4L154.27 38L156.925 42.6ZM153.443 42.6L152.631 44L149.149 38L152.631 32L153.443 33.4L150.788 38L153.443 42.6ZM149.961 42.6L149.149 44L145.667 38L149.149 32L149.961 33.4L147.306 38L149.961 42.6Z" fill="#A66F00"/>
<path d="M167.372 42.6L166.559 44L163.077 38L166.559 32L167.372 33.4L164.717 38L167.372 42.6ZM163.89 42.6L163.077 44L159.595 38L163.077 32L163.89 33.4L161.235 38L163.89 42.6ZM160.408 42.6L159.595 44L156.113 38L159.595 32L160.408 33.4L157.752 38L160.408 42.6Z" fill="#A66F00"/>
<path d="M450 26.6L449.188 28L445.705 22L449.188 16L450 17.4L447.345 22L450 26.6ZM446.518 26.6L445.705 28L442.223 22L445.705 16L446.518 17.4L443.863 22L446.518 26.6ZM443.036 26.6L442.223 28L438.741 22L442.223 16L443.036 17.4L440.381 22L443.036 26.6Z" fill="#A66F00"/>
<path d="M366.43 26.6L365.618 28L362.136 22L365.618 16L366.43 17.4L363.775 22L366.43 26.6ZM362.948 26.6L362.136 28L358.654 22L362.136 16L362.948 17.4L360.293 22L362.948 26.6ZM359.466 26.6L358.654 28L355.172 22L358.654 16L359.466 17.4L356.811 22L359.466 26.6Z" fill="#A66F00"/>
<path d="M408.215 26.6L407.403 28L403.921 22L407.403 16L408.215 17.4L405.56 22L408.215 26.6ZM404.733 26.6L403.921 28L400.438 22L403.921 16L404.733 17.4L402.078 22L404.733 26.6ZM401.251 26.6L400.438 28L396.956 22L400.438 16L401.251 17.4L398.596 22L401.251 26.6Z" fill="#A66F00"/>
<path d="M324.645 26.6L323.833 28L320.351 22L323.833 16L324.645 17.4L321.99 22L324.645 26.6ZM321.163 26.6L320.351 28L316.869 22L320.351 16L321.163 17.4L318.508 22L321.163 26.6ZM317.681 26.6L316.869 28L313.387 22L316.869 16L317.681 17.4L315.026 22L317.681 26.6Z" fill="#A66F00"/>
<path d="M272.414 26.6L271.602 28L268.12 22L271.602 16L272.414 17.4L269.759 22L272.414 26.6ZM268.932 26.6L268.12 28L264.638 22L268.12 16L268.932 17.4L266.277 22L268.932 26.6ZM265.45 26.6L264.638 28L261.156 22L264.638 16L265.45 17.4L262.795 22L265.45 26.6Z" fill="#A66F00"/>
<path d="M439.554 26.6L438.741 28L435.259 22L438.741 16L439.554 17.4L436.899 22L439.554 26.6ZM436.072 26.6L435.259 28L431.777 22L435.259 16L436.072 17.4L433.417 22L436.072 26.6ZM432.59 26.6L431.777 28L428.295 22L431.777 16L432.59 17.4L429.935 22L432.59 26.6Z" fill="#A66F00"/>
<path d="M355.984 26.6L355.172 28L351.689 22L355.172 16L355.984 17.4L353.329 22L355.984 26.6ZM352.502 26.6L351.689 28L348.207 22L351.689 16L352.502 17.4L349.847 22L352.502 26.6ZM349.02 26.6L348.207 28L344.725 22L348.207 16L349.02 17.4L346.365 22L349.02 26.6Z" fill="#A66F00"/>
<path d="M397.769 26.6L396.956 28L393.474 22L396.956 16L397.769 17.4L395.114 22L397.769 26.6ZM394.287 26.6L393.474 28L389.992 22L393.474 16L394.287 17.4L391.632 22L394.287 26.6ZM390.805 26.6L389.992 28L386.51 22L389.992 16L390.805 17.4L388.15 22L390.805 26.6Z" fill="#A66F00"/>
<path d="M314.199 26.6L313.387 28L309.905 22L313.387 16L314.199 17.4L311.544 22L314.199 26.6ZM310.717 26.6L309.905 28L306.422 22L309.905 16L310.717 17.4L308.062 22L310.717 26.6ZM307.235 26.6L306.422 28L302.94 22L306.422 16L307.235 17.4L304.58 22L307.235 26.6Z" fill="#A66F00"/>
<path d="M261.968 26.6L261.156 28L257.673 22L261.156 16L261.968 17.4L259.313 22L261.968 26.6ZM258.486 26.6L257.673 28L254.191 22L257.673 16L258.486 17.4L255.831 22L258.486 26.6ZM255.004 26.6L254.191 28L250.709 22L254.191 16L255.004 17.4L252.349 22L255.004 26.6Z" fill="#A66F00"/>
<path d="M429.108 26.6L428.295 28L424.813 22L428.295 16L429.108 17.4L426.452 22L429.108 26.6ZM425.625 26.6L424.813 28L421.331 22L424.813 16L425.625 17.4L422.97 22L425.625 26.6ZM422.143 26.6L421.331 28L417.849 22L421.331 16L422.143 17.4L419.488 22L422.143 26.6Z" fill="#A66F00"/>
<path d="M345.538 26.6L344.725 28L341.243 22L344.725 16L345.538 17.4L342.883 22L345.538 26.6ZM342.056 26.6L341.243 28L337.761 22L341.243 16L342.056 17.4L339.401 22L342.056 26.6ZM338.574 26.6L337.761 28L334.279 22L337.761 16L338.574 17.4L335.919 22L338.574 26.6Z" fill="#A66F00"/>
<path d="M387.323 26.6L386.51 28L383.028 22L386.51 16L387.323 17.4L384.668 22L387.323 26.6ZM383.841 26.6L383.028 28L379.546 22L383.028 16L383.841 17.4L381.186 22L383.841 26.6ZM380.359 26.6L379.546 28L376.064 22L379.546 16L380.359 17.4L377.703 22L380.359 26.6Z" fill="#A66F00"/>
<path d="M303.753 26.6L302.94 28L299.458 22L302.94 16L303.753 17.4L301.098 22L303.753 26.6ZM300.271 26.6L299.458 28L295.976 22L299.458 16L300.271 17.4L297.616 22L300.271 26.6ZM296.789 26.6L295.976 28L292.494 22L295.976 16L296.789 17.4L294.134 22L296.789 26.6Z" fill="#A66F00"/>
<path d="M251.522 26.6L250.709 28L247.227 22L250.709 16L251.522 17.4L248.867 22L251.522 26.6ZM248.04 26.6L247.227 28L243.745 22L247.227 16L248.04 17.4L245.385 22L248.04 26.6ZM244.558 26.6L243.745 28L240.263 22L243.745 16L244.558 17.4L241.903 22L244.558 26.6Z" fill="#A66F00"/>
<path d="M418.661 26.6L417.849 28L414.367 22L417.849 16L418.661 17.4L416.006 22L418.661 26.6ZM415.179 26.6L414.367 28L410.885 22L414.367 16L415.179 17.4L412.524 22L415.179 26.6ZM411.697 26.6L410.885 28L407.403 22L410.885 16L411.697 17.4L409.042 22L411.697 26.6Z" fill="#A66F00"/>
<path d="M335.092 26.6L334.279 28L330.797 22L334.279 16L335.092 17.4L332.436 22L335.092 26.6ZM331.61 26.6L330.797 28L327.315 22L330.797 16L331.61 17.4L328.954 22L331.61 26.6ZM328.127 26.6L327.315 28L323.833 22L327.315 16L328.127 17.4L325.472 22L328.127 26.6Z" fill="#A66F00"/>
<path d="M282.86 26.6L282.048 28L278.566 22L282.048 16L282.86 17.4L280.205 22L282.86 26.6ZM279.378 26.6L278.566 28L275.084 22L278.566 16L279.378 17.4L276.723 22L279.378 26.6ZM275.896 26.6L275.084 28L271.602 22L275.084 16L275.896 17.4L273.241 22L275.896 26.6Z" fill="#A66F00"/>
<path d="M376.876 26.6L376.064 28L372.582 22L376.064 16L376.876 17.4L374.221 22L376.876 26.6ZM373.394 26.6L372.582 28L369.1 22L372.582 16L373.394 17.4L370.739 22L373.394 26.6ZM369.912 26.6L369.1 28L365.618 22L369.1 16L369.912 17.4L367.257 22L369.912 26.6Z" fill="#A66F00"/>
<path d="M293.307 26.6L292.494 28L289.012 22L292.494 16L293.307 17.4L290.652 22L293.307 26.6ZM289.825 26.6L289.012 28L285.53 22L289.012 16L289.825 17.4L287.17 22L289.825 26.6ZM286.343 26.6L285.53 28L282.048 22L285.53 16L286.343 17.4L283.687 22L286.343 26.6Z" fill="#A66F00"/>
<path d="M241.076 26.6L240.263 28L236.781 22L240.263 16L241.076 17.4L238.421 22L241.076 26.6ZM237.593 26.6L236.781 28L233.299 22L236.781 16L237.593 17.4L234.938 22L237.593 26.6ZM234.111 26.6L233.299 28L229.817 22L233.299 16L234.111 17.4L231.456 22L234.111 26.6Z" fill="#A66F00"/>
<path d="M230.629 26.6L229.817 28L226.335 22L229.817 16L230.629 17.4L227.974 22L230.629 26.6ZM227.147 26.6L226.335 28L222.853 22L226.335 16L227.147 17.4L224.492 22L227.147 26.6ZM223.665 26.6L222.853 28L219.371 22L222.853 16L223.665 17.4L221.01 22L223.665 26.6Z" fill="#A66F00"/>
<path d="M220.183 26.6L219.371 28L215.889 22L219.371 16L220.183 17.4L217.528 22L220.183 26.6ZM216.701 26.6L215.889 28L212.407 22L215.889 16L216.701 17.4L214.046 22L216.701 26.6ZM213.219 26.6L212.407 28L208.924 22L212.407 16L213.219 17.4L210.564 22L213.219 26.6Z" fill="#A66F00"/>
<path d="M209.737 26.6L208.924 28L205.442 22L208.924 16L209.737 17.4L207.082 22L209.737 26.6ZM206.255 26.6L205.442 28L201.96 22L205.442 16L206.255 17.4L203.6 22L206.255 26.6ZM202.773 26.6L201.96 28L198.478 22L201.96 16L202.773 17.4L200.118 22L202.773 26.6Z" fill="#A66F00"/>
<path d="M450 10.6L449.188 12L445.705 6L449.188 1.78814e-07L450 1.4L447.345 6L450 10.6ZM446.518 10.6L445.705 12L442.223 6L445.705 1.78814e-07L446.518 1.4L443.863 6L446.518 10.6ZM443.036 10.6L442.223 12L438.741 6L442.223 1.78814e-07L443.036 1.4L440.381 6L443.036 10.6Z" fill="#A66F00"/>
<path d="M366.43 10.6L365.618 12L362.136 6L365.618 1.78814e-07L366.43 1.4L363.775 6L366.43 10.6ZM362.948 10.6L362.136 12L358.654 6L362.136 1.78814e-07L362.948 1.4L360.293 6L362.948 10.6ZM359.466 10.6L358.654 12L355.172 6L358.654 1.78814e-07L359.466 1.4L356.811 6L359.466 10.6Z" fill="#A66F00"/>
<path d="M408.215 10.6L407.403 12L403.921 6L407.403 1.78814e-07L408.215 1.4L405.56 6L408.215 10.6ZM404.733 10.6L403.921 12L400.438 6L403.921 1.78814e-07L404.733 1.4L402.078 6L404.733 10.6ZM401.251 10.6L400.438 12L396.956 6L400.438 1.78814e-07L401.251 1.4L398.596 6L401.251 10.6Z" fill="#A66F00"/>
<path d="M324.645 10.6L323.833 12L320.351 6L323.833 1.78814e-07L324.645 1.4L321.99 6L324.645 10.6ZM321.163 10.6L320.351 12L316.869 6L320.351 1.78814e-07L321.163 1.4L318.508 6L321.163 10.6ZM317.681 10.6L316.869 12L313.387 6L316.869 1.78814e-07L317.681 1.4L315.026 6L317.681 10.6Z" fill="#A66F00"/>
<path d="M272.414 10.6L271.602 12L268.12 6L271.602 1.78814e-07L272.414 1.4L269.759 6L272.414 10.6ZM268.932 10.6L268.12 12L264.638 6L268.12 1.78814e-07L268.932 1.4L266.277 6L268.932 10.6ZM265.45 10.6L264.638 12L261.156 6L264.638 1.78814e-07L265.45 1.4L262.795 6L265.45 10.6Z" fill="#A66F00"/>
<path d="M439.554 10.6L438.741 12L435.259 6L438.741 1.78814e-07L439.554 1.4L436.899 6L439.554 10.6ZM436.072 10.6L435.259 12L431.777 6L435.259 1.78814e-07L436.072 1.4L433.417 6L436.072 10.6ZM432.59 10.6L431.777 12L428.295 6L431.777 1.78814e-07L432.59 1.4L429.935 6L432.59 10.6Z" fill="#A66F00"/>
<path d="M355.984 10.6L355.172 12L351.689 6L355.172 1.78814e-07L355.984 1.4L353.329 6L355.984 10.6ZM352.502 10.6L351.689 12L348.207 6L351.689 1.78814e-07L352.502 1.4L349.847 6L352.502 10.6ZM349.02 10.6L348.207 12L344.725 6L348.207 1.78814e-07L349.02 1.4L346.365 6L349.02 10.6Z" fill="#A66F00"/>
<path d="M397.769 10.6L396.956 12L393.474 6L396.956 1.78814e-07L397.769 1.4L395.114 6L397.769 10.6ZM394.287 10.6L393.474 12L389.992 6L393.474 1.78814e-07L394.287 1.4L391.632 6L394.287 10.6ZM390.805 10.6L389.992 12L386.51 6L389.992 1.78814e-07L390.805 1.4L388.15 6L390.805 10.6Z" fill="#A66F00"/>
<path d="M314.199 10.6L313.387 12L309.905 6L313.387 1.78814e-07L314.199 1.4L311.544 6L314.199 10.6ZM310.717 10.6L309.905 12L306.422 6L309.905 1.78814e-07L310.717 1.4L308.062 6L310.717 10.6ZM307.235 10.6L306.422 12L302.94 6L306.422 1.78814e-07L307.235 1.4L304.58 6L307.235 10.6Z" fill="#A66F00"/>
<path d="M261.968 10.6L261.156 12L257.673 6L261.156 1.78814e-07L261.968 1.4L259.313 6L261.968 10.6ZM258.486 10.6L257.673 12L254.191 6L257.673 1.78814e-07L258.486 1.4L255.831 6L258.486 10.6ZM255.004 10.6L254.191 12L250.709 6L254.191 1.78814e-07L255.004 1.4L252.349 6L255.004 10.6Z" fill="#A66F00"/>
<path d="M429.108 10.6L428.295 12L424.813 6L428.295 1.78814e-07L429.108 1.4L426.452 6L429.108 10.6ZM425.625 10.6L424.813 12L421.331 6L424.813 1.78814e-07L425.625 1.4L422.97 6L425.625 10.6ZM422.143 10.6L421.331 12L417.849 6L421.331 1.78814e-07L422.143 1.4L419.488 6L422.143 10.6Z" fill="#A66F00"/>
<path d="M345.538 10.6L344.725 12L341.243 6L344.725 1.78814e-07L345.538 1.4L342.883 6L345.538 10.6ZM342.056 10.6L341.243 12L337.761 6L341.243 1.78814e-07L342.056 1.4L339.401 6L342.056 10.6ZM338.574 10.6L337.761 12L334.279 6L337.761 1.78814e-07L338.574 1.4L335.919 6L338.574 10.6Z" fill="#A66F00"/>
<path d="M387.323 10.6L386.51 12L383.028 6L386.51 1.78814e-07L387.323 1.4L384.668 6L387.323 10.6ZM383.841 10.6L383.028 12L379.546 6L383.028 1.78814e-07L383.841 1.4L381.186 6L383.841 10.6ZM380.359 10.6L379.546 12L376.064 6L379.546 1.78814e-07L380.359 1.4L377.703 6L380.359 10.6Z" fill="#A66F00"/>
<path d="M303.753 10.6L302.94 12L299.458 6L302.94 1.78814e-07L303.753 1.4L301.098 6L303.753 10.6ZM300.271 10.6L299.458 12L295.976 6L299.458 1.78814e-07L300.271 1.4L297.616 6L300.271 10.6ZM296.789 10.6L295.976 12L292.494 6L295.976 1.78814e-07L296.789 1.4L294.134 6L296.789 10.6Z" fill="#A66F00"/>
<path d="M251.522 10.6L250.709 12L247.227 6L250.709 1.78814e-07L251.522 1.4L248.867 6L251.522 10.6ZM248.04 10.6L247.227 12L243.745 6L247.227 1.78814e-07L248.04 1.4L245.385 6L248.04 10.6ZM244.558 10.6L243.745 12L240.263 6L243.745 1.78814e-07L244.558 1.4L241.903 6L244.558 10.6Z" fill="#A66F00"/>
<path d="M418.661 10.6L417.849 12L414.367 6L417.849 1.78814e-07L418.661 1.4L416.006 6L418.661 10.6ZM415.179 10.6L414.367 12L410.885 6L414.367 1.78814e-07L415.179 1.4L412.524 6L415.179 10.6ZM411.697 10.6L410.885 12L407.403 6L410.885 1.78814e-07L411.697 1.4L409.042 6L411.697 10.6Z" fill="#A66F00"/>
<path d="M335.092 10.6L334.279 12L330.797 6L334.279 1.78814e-07L335.092 1.4L332.436 6L335.092 10.6ZM331.61 10.6L330.797 12L327.315 6L330.797 1.78814e-07L331.61 1.4L328.954 6L331.61 10.6ZM328.127 10.6L327.315 12L323.833 6L327.315 1.78814e-07L328.127 1.4L325.472 6L328.127 10.6Z" fill="#A66F00"/>
<path d="M282.86 10.6L282.048 12L278.566 6L282.048 1.78814e-07L282.86 1.4L280.205 6L282.86 10.6ZM279.378 10.6L278.566 12L275.084 6L278.566 1.78814e-07L279.378 1.4L276.723 6L279.378 10.6ZM275.896 10.6L275.084 12L271.602 6L275.084 1.78814e-07L275.896 1.4L273.241 6L275.896 10.6Z" fill="#A66F00"/>
<path d="M376.876 10.6L376.064 12L372.582 6L376.064 1.78814e-07L376.876 1.4L374.221 6L376.876 10.6ZM373.394 10.6L372.582 12L369.1 6L372.582 1.78814e-07L373.394 1.4L370.739 6L373.394 10.6ZM369.912 10.6L369.1 12L365.618 6L369.1 1.78814e-07L369.912 1.4L367.257 6L369.912 10.6Z" fill="#A66F00"/>
<path d="M293.307 10.6L292.494 12L289.012 6L292.494 1.78814e-07L293.307 1.4L290.652 6L293.307 10.6ZM289.825 10.6L289.012 12L285.53 6L289.012 1.78814e-07L289.825 1.4L287.17 6L289.825 10.6ZM286.343 10.6L285.53 12L282.048 6L285.53 1.78814e-07L286.343 1.4L283.687 6L286.343 10.6Z" fill="#A66F00"/>
<path d="M241.076 10.6L240.263 12L236.781 6L240.263 1.78814e-07L241.076 1.4L238.421 6L241.076 10.6ZM237.593 10.6L236.781 12L233.299 6L236.781 1.78814e-07L237.593 1.4L234.938 6L237.593 10.6ZM234.111 10.6L233.299 12L229.817 6L233.299 1.78814e-07L234.111 1.4L231.456 6L234.111 10.6Z" fill="#A66F00"/>
<path d="M230.629 10.6L229.817 12L226.335 6L229.817 1.78814e-07L230.629 1.4L227.974 6L230.629 10.6ZM227.147 10.6L226.335 12L222.853 6L226.335 1.78814e-07L227.147 1.4L224.492 6L227.147 10.6ZM223.665 10.6L222.853 12L219.371 6L222.853 1.78814e-07L223.665 1.4L221.01 6L223.665 10.6Z" fill="#A66F00"/>
<path d="M220.183 10.6L219.371 12L215.889 6L219.371 1.78814e-07L220.183 1.4L217.528 6L220.183 10.6ZM216.701 10.6L215.889 12L212.407 6L215.889 1.78814e-07L216.701 1.4L214.046 6L216.701 10.6ZM213.219 10.6L212.407 12L208.924 6L212.407 1.78814e-07L213.219 1.4L210.564 6L213.219 10.6Z" fill="#A66F00"/>
<path d="M209.737 10.6L208.924 12L205.442 6L208.924 1.78814e-07L209.737 1.4L207.082 6L209.737 10.6ZM206.255 10.6L205.442 12L201.96 6L205.442 1.78814e-07L206.255 1.4L203.6 6L206.255 10.6ZM202.773 10.6L201.96 12L198.478 6L201.96 1.78814e-07L202.773 1.4L200.118 6L202.773 10.6Z" fill="#A66F00"/>
<path d="M199.291 26.6L198.478 28L194.996 22L198.478 16L199.291 17.4L196.636 22L199.291 26.6ZM195.809 26.6L194.996 28L191.514 22L194.996 16L195.809 17.4L193.154 22L195.809 26.6ZM192.327 26.6L191.514 28L188.032 22L191.514 16L192.327 17.4L189.671 22L192.327 26.6Z" fill="#A66F00"/>
<path d="M147.06 26.6L146.247 28L142.765 22L146.247 16L147.06 17.4L144.404 22L147.06 26.6ZM143.578 26.6L142.765 28L139.283 22L142.765 16L143.578 17.4L140.922 22L143.578 26.6ZM140.095 26.6L139.283 28L135.801 22L139.283 16L140.095 17.4L137.44 22L140.095 26.6Z" fill="#A66F00"/>
<path d="M188.844 26.6L188.032 28L184.55 22L188.032 16L188.844 17.4L186.189 22L188.844 26.6ZM185.362 26.6L184.55 28L181.068 22L184.55 16L185.362 17.4L182.707 22L185.362 26.6ZM181.88 26.6L181.068 28L177.586 22L181.068 16L181.88 17.4L179.225 22L181.88 26.6Z" fill="#A66F00"/>
<path d="M136.613 26.6L135.801 28L132.319 22L135.801 16L136.613 17.4L133.958 22L136.613 26.6ZM133.131 26.6L132.319 28L128.837 22L132.319 16L133.131 17.4L130.476 22L133.131 26.6ZM129.649 26.6L128.837 28L125.355 22L128.837 16L129.649 17.4L126.994 22L129.649 26.6Z" fill="#A66F00"/>
<path d="M178.398 26.6L177.586 28L174.104 22L177.586 16L178.398 17.4L175.743 22L178.398 26.6ZM174.916 26.6L174.104 28L170.622 22L174.104 16L174.916 17.4L172.261 22L174.916 26.6ZM171.434 26.6L170.622 28L167.14 22L170.622 16L171.434 17.4L168.779 22L171.434 26.6Z" fill="#A66F00"/>
<path d="M126.167 26.6L125.355 28L121.873 22L125.355 16L126.167 17.4L123.512 22L126.167 26.6ZM122.685 26.6L121.873 28L118.391 22L121.873 16L122.685 17.4L120.03 22L122.685 26.6ZM119.203 26.6L118.391 28L114.908 22L118.391 16L119.203 17.4L116.548 22L119.203 26.6Z" fill="#A66F00"/>
<path d="M157.506 26.6L156.693 28L153.211 22L156.693 16L157.506 17.4L154.851 22L157.506 26.6ZM154.024 26.6L153.211 28L149.729 22L153.211 16L154.024 17.4L151.369 22L154.024 26.6ZM150.542 26.6L149.729 28L146.247 22L149.729 16L150.542 17.4L147.887 22L150.542 26.6Z" fill="#A66F00"/>
<path d="M167.952 26.6L167.14 28L163.657 22L167.14 16L167.952 17.4L165.297 22L167.952 26.6ZM164.47 26.6L163.657 28L160.175 22L163.657 16L164.47 17.4L161.815 22L164.47 26.6ZM160.988 26.6L160.175 28L156.693 22L160.175 16L160.988 17.4L158.333 22L160.988 26.6Z" fill="#A66F00"/>
<path d="M115.721 26.6L114.908 28L111.426 22L114.908 16L115.721 17.4L113.066 22L115.721 26.6ZM112.239 26.6L111.426 28L107.944 22L111.426 16L112.239 17.4L109.584 22L112.239 26.6ZM108.757 26.6L107.944 28L104.462 22L107.944 16L108.757 17.4L106.102 22L108.757 26.6Z" fill="#A66F00"/>
<path d="M105.275 26.6L104.462 28L100.98 22L104.462 16L105.275 17.4L102.62 22L105.275 26.6ZM101.793 26.6L100.98 28L97.4981 22L100.98 16L101.793 17.4L99.1375 22L101.793 26.6ZM98.3105 26.6L97.4981 28L94.016 22L97.4981 16L98.3105 17.4L95.6555 22L98.3105 26.6Z" fill="#A66F00"/>
<path d="M94.8285 26.6L94.016 28L90.5339 22L94.016 16L94.8285 17.4L92.1734 22L94.8285 26.6ZM91.3464 26.6L90.5339 28L87.0518 22L90.5339 16L91.3464 17.4L88.6913 22L91.3464 26.6ZM87.8643 26.6L87.0518 28L83.5698 22L87.0518 16L87.8643 17.4L85.2092 22L87.8643 26.6Z" fill="#A66F00"/>
<path d="M84.3823 26.6L83.5698 28L80.0877 22L83.5698 16L84.3823 17.4L81.7272 22L84.3823 26.6ZM80.9002 26.6L80.0877 28L76.6056 22L80.0877 16L80.9002 17.4L78.2451 22L80.9002 26.6ZM77.4181 26.6L76.6056 28L73.1235 22L76.6056 16L77.4181 17.4L74.763 22L77.4181 26.6Z" fill="#A66F00"/>
<path d="M199.291 10.6L198.478 12L194.996 6L198.478 0L199.291 1.4L196.636 6L199.291 10.6ZM195.809 10.6L194.996 12L191.514 6L194.996 0L195.809 1.4L193.154 6L195.809 10.6ZM192.327 10.6L191.514 12L188.032 6L191.514 0L192.327 1.4L189.671 6L192.327 10.6Z" fill="#A66F00"/>
<path d="M73.936 10.6L73.1235 12L69.6415 6L73.1235 0L73.936 1.4L71.281 6L73.936 10.6ZM70.454 10.6L69.6415 12L66.1594 6L69.6415 0L70.454 1.4L67.7989 6L70.454 10.6ZM66.9719 10.6L66.1594 12L62.6773 6L66.1594 0L66.9719 1.4L64.3168 6L66.9719 10.6Z" fill="#A66F00"/>
<path d="M147.06 10.6L146.247 12L142.765 6L146.247 0L147.06 1.4L144.404 6L147.06 10.6ZM143.578 10.6L142.765 12L139.283 6L142.765 0L143.578 1.4L140.922 6L143.578 10.6ZM140.095 10.6L139.283 12L135.801 6L139.283 0L140.095 1.4L137.44 6L140.095 10.6Z" fill="#A66F00"/>
<path d="M21.7049 10.6L20.8924 12L17.4104 6L20.8924 0L21.7049 1.4L19.0498 6L21.7049 10.6ZM18.2229 10.6L17.4104 12L13.9283 6L17.4104 0L18.2229 1.4L15.5678 6L18.2229 10.6ZM14.7408 10.6L13.9283 12L10.4462 6L13.9283 0L14.7408 1.4L12.0857 6L14.7408 10.6Z" fill="#A66F00"/>
<path d="M188.844 10.6L188.032 12L184.55 6L188.032 0L188.844 1.4L186.189 6L188.844 10.6ZM185.362 10.6L184.55 12L181.068 6L184.55 0L185.362 1.4L182.707 6L185.362 10.6ZM181.88 10.6L181.068 12L177.586 6L181.068 0L181.88 1.4L179.225 6L181.88 10.6Z" fill="#A66F00"/>
<path d="M63.4898 10.6L62.6773 12L59.1953 6L62.6773 0L63.4898 1.4L60.8347 6L63.4898 10.6ZM60.0077 10.6L59.1953 12L55.7132 6L59.1953 0L60.0077 1.4L57.3527 6L60.0077 10.6ZM56.5257 10.6L55.7132 12L52.2311 6L55.7132 0L56.5257 1.4L53.8706 6L56.5257 10.6Z" fill="#A66F00"/>
<path d="M136.613 10.6L135.801 12L132.319 6L135.801 0L136.613 1.4L133.958 6L136.613 10.6ZM133.131 10.6L132.319 12L128.837 6L132.319 0L133.131 1.4L130.476 6L133.131 10.6ZM129.649 10.6L128.837 12L125.355 6L128.837 0L129.649 1.4L126.994 6L129.649 10.6Z" fill="#A66F00"/>
<path d="M11.2587 10.6L10.4462 12L6.96415 6L10.4462 0L11.2587 1.4L8.60362 6L11.2587 10.6ZM7.77663 10.6L6.96415 12L3.48207 6L6.96415 0L7.77663 1.4L5.12155 6L7.77663 10.6ZM4.29456 10.6L3.48207 12L0 6L3.48207 0L4.29456 1.4L1.63948 6L4.29456 10.6Z" fill="#A66F00"/>
<path d="M178.398 10.6L177.586 12L174.104 6L177.586 0L178.398 1.4L175.743 6L178.398 10.6ZM174.916 10.6L174.104 12L170.622 6L174.104 0L174.916 1.4L172.261 6L174.916 10.6ZM171.434 10.6L170.622 12L167.14 6L170.622 0L171.434 1.4L168.779 6L171.434 10.6Z" fill="#A66F00"/>
<path d="M53.0436 10.6L52.2311 12L48.749 6L52.2311 0L53.0436 1.4L50.3885 6L53.0436 10.6ZM49.5615 10.6L48.749 12L45.267 6L48.749 0L49.5615 1.4L46.9064 6L49.5615 10.6ZM46.0794 10.6L45.267 12L41.7849 6L45.267 0L46.0794 1.4L43.4244 6L46.0794 10.6Z" fill="#A66F00"/>
<path d="M126.167 10.6L125.355 12L121.873 6L125.355 0L126.167 1.4L123.512 6L126.167 10.6ZM122.685 10.6L121.873 12L118.391 6L121.873 0L122.685 1.4L120.03 6L122.685 10.6ZM119.203 10.6L118.391 12L114.908 6L118.391 0L119.203 1.4L116.548 6L119.203 10.6Z" fill="#A66F00"/>
<path d="M157.506 10.6L156.693 12L153.211 6L156.693 0L157.506 1.4L154.851 6L157.506 10.6ZM154.024 10.6L153.211 12L149.729 6L153.211 0L154.024 1.4L151.369 6L154.024 10.6ZM150.542 10.6L149.729 12L146.247 6L149.729 0L150.542 1.4L147.887 6L150.542 10.6Z" fill="#A66F00"/>
<path d="M32.1511 10.6L31.3387 12L27.8566 6L31.3387 0L32.1511 1.4L29.4961 6L32.1511 10.6ZM28.6691 10.6L27.8566 12L24.3745 6L27.8566 0L28.6691 1.4L26.014 6L28.6691 10.6ZM25.187 10.6L24.3745 12L20.8924 6L24.3745 0L25.187 1.4L22.5319 6L25.187 10.6Z" fill="#A66F00"/>
<path d="M167.952 10.6L167.14 12L163.657 6L167.14 0L167.952 1.4L165.297 6L167.952 10.6ZM164.47 10.6L163.657 12L160.175 6L163.657 0L164.47 1.4L161.815 6L164.47 10.6ZM160.988 10.6L160.175 12L156.693 6L160.175 0L160.988 1.4L158.333 6L160.988 10.6Z" fill="#A66F00"/>
<path d="M42.5974 10.6L41.7849 12L38.3028 6L41.7849 0L42.5974 1.4L39.9423 6L42.5974 10.6ZM39.1153 10.6L38.3028 12L34.8207 6L38.3028 0L39.1153 1.4L36.4602 6L39.1153 10.6ZM35.6332 10.6L34.8207 12L31.3387 6L34.8207 0L35.6332 1.4L32.9781 6L35.6332 10.6Z" fill="#A66F00"/>
<path d="M115.721 10.6L114.908 12L111.426 6L114.908 0L115.721 1.4L113.066 6L115.721 10.6ZM112.239 10.6L111.426 12L107.944 6L111.426 0L112.239 1.4L109.584 6L112.239 10.6ZM108.757 10.6L107.944 12L104.462 6L107.944 0L108.757 1.4L106.102 6L108.757 10.6Z" fill="#A66F00"/>
<path d="M105.275 10.6L104.462 12L100.98 6L104.462 0L105.275 1.4L102.62 6L105.275 10.6ZM101.793 10.6L100.98 12L97.4981 6L100.98 0L101.793 1.4L99.1375 6L101.793 10.6ZM98.3105 10.6L97.4981 12L94.016 6L97.4981 0L98.3105 1.4L95.6555 6L98.3105 10.6Z" fill="#A66F00"/>
<path d="M94.8285 10.6L94.016 12L90.5339 6L94.016 0L94.8285 1.4L92.1734 6L94.8285 10.6ZM91.3464 10.6L90.5339 12L87.0518 6L90.5339 0L91.3464 1.4L88.6913 6L91.3464 10.6ZM87.8643 10.6L87.0518 12L83.5698 6L87.0518 0L87.8643 1.4L85.2092 6L87.8643 10.6Z" fill="#A66F00"/>
<path d="M84.3823 10.6L83.5698 12L80.0877 6L83.5698 0L84.3823 1.4L81.7272 6L84.3823 10.6ZM80.9002 10.6L80.0877 12L76.6056 6L80.0877 0L80.9002 1.4L78.2451 6L80.9002 10.6ZM77.4181 10.6L76.6056 12L73.1235 6L76.6056 0L77.4181 1.4L74.763 6L77.4181 10.6Z" fill="#A66F00"/>
</g>
</svg>
